<svg width="214" height="35" fill="none" xmlns="http://www.w3.org/2000/svg">
  <path d="M21.4 19.7c-3.2 0-6 1.3-7.9 3.9-1.9 2.5-3 5.8-4.5 8.9-2.2 4.7-10.1 2.2-8.8-3.1 2.1-9.1 14-9.8 21.2-9.7Z" fill="url(#a)"></path>
  <path d="M20.3 19.7c-3.4.7-4.9 1.6-6.8 3.9C2 25.4.2 31.9.2 31.9c-.4-1.5-.2-3 .5-4.4L4 20.9l16.3-1.2Z" fill="url(#b)" fill-opacity=".1"></path>
  <path d="m32.5 11.8-.4 1.4c-2.5 7-7.7 6-14.3 6.8-4.4.5-9.3 1.8-14.5 6.5-2 1.7-3.6 4.4-2 7-1.7-1.6-1.6-4.1-.6-6l7.7-15.7h24.1Z" fill="url(#c)"></path>
  <path d="m32.5 11.8-.4 1.4c-7.5 0-22.8-1.9-27.3 6l3.6-7.4h24.1Z" fill="url(#d)" fill-opacity=".1"></path>
  <path d="M46.7 1A12 12 0 0 1 35 11.8H20.7c-6 0-12.3 2.3-16 7.4l3.7-7.4C12 4.6 19.4 0 27.4 0h18.4c.5 0 1 .5 1 1Z" fill="url(#e)"></path>
  <path d="M43 0c-3.8 8.3-15.3 7.7-23 8.8-5.8.9-12.6 4.8-15.2 10.3l3.6-7.3C12 4.7 19.4 0 27.4 0H43Z" fill="url(#f)"></path>
  <path d="M35.5 0C31 4 23.5 5 18 6.8 9.1 9.9 4.3 20 5.6 17.4l2.8-5.6C12 4.7 19.4 0 27.4 0h8.1Z" fill="url(#g)"></path>
  <path d="M51.8 28.8h5v-8.3h8.1v-4h-8.1v-4.2h9v-4h-14v20.5ZM73.2 8.3h-4.9v20.5h5V8.3ZM79.3 34.6c3.6 0 5.3-1.8 6.2-4.3l5.8-16.9H86l-2.9 11h-.1l-2.9-11h-5.1l5.5 16-.2.4c-.5 1.2-1.6 1.2-3 .7l-1 3.6c.7.3 1.8.5 3 .5ZM93.1 28.8h5V13.4h-5v15.4Zm2.5-17.2c1.4 0 2.5-1 2.5-2.3 0-1.3-1.1-2.4-2.5-2.4s-2.5 1-2.5 2.4c0 1.2 1.1 2.3 2.5 2.3ZM106 20c0-1.7 1.1-2.8 2.7-2.8 1.5 0 2.4 1 2.4 2.7v8.9h5V19c0-3.5-2.2-5.8-5.4-5.8-2.3 0-4 1.1-4.7 3h-.2v-2.8h-4.6v15.4h4.9V20ZM126.2 34.9c4.7 0 7.8-2.1 7.8-6V13.4h-4.8V16h-.2c-.6-1.4-2-2.8-4.3-2.8-3.3 0-6.2 2.5-6.2 7.9 0 5.2 2.8 7.5 6.2 7.5 2.2 0 3.8-1 4.3-2.5h.2v2.7c0 2-1.2 2.7-2.8 2.7-1.6 0-2.6-.6-2.8-1.6l-4.7.3c.4 2.7 3 4.7 7.3 4.7Zm.2-9.9c-1.8 0-2.8-1.5-2.8-4 0-2.4 1-4 2.8-4 1.8 0 2.8 1.6 2.8 4 0 2.5-1 4-2.8 4ZM137.2 28.8h5v-6.4h3.3c4.7 0 7.6-2.8 7.6-7 0-4.3-2.8-7.1-7.5-7.1h-8.4v20.5Zm5-10.3v-6.2h2.4c2.2 0 3.4 1.2 3.4 3 0 2-1.2 3.2-3.4 3.2H142ZM155.6 28.8h4.9v-8.4a3 3 0 0 1 3-3c.6 0 1.5 0 2 .2v-4.2l-1.4-.2c-1.7 0-3 1-3.6 3h-.2v-2.8h-4.7v15.4ZM173.9 29c4 0 6.6-1.9 7.2-4.9l-4.5-.1c-.4 1-1.4 1.5-2.7 1.5-1.8 0-3-1.2-3-3v-.2h10.3V21c0-5.1-3.1-8-7.5-8-4.6 0-7.6 3.3-7.6 8 0 5 3 8 7.8 8Zm-3-9.6c0-1.5 1.3-2.7 2.9-2.7 1.6 0 2.8 1.2 2.8 2.7h-5.7ZM197.1 18.1c-.3-3-2.8-5-7-5-4 0-6.7 2-6.7 5 0 2.4 1.5 3.9 4.5 4.5l2.7.5c1.3.2 1.9.6 1.9 1.3 0 .8-.9 1.3-2.1 1.3-1.4 0-2.4-.6-2.6-1.7H183c.3 3.1 3 5 7.3 5 4.2 0 7.2-2 7.2-5.1 0-2.3-1.5-3.6-4.6-4.2l-3-.6c-1.3-.2-1.7-.7-1.7-1.3 0-.8 1-1.2 2-1.2 1.4 0 2.3.6 2.4 1.6l4.5-.1ZM213.3 18.1c-.2-3-2.7-5-6.9-5s-6.8 2-6.8 5c0 2.4 1.5 3.9 4.6 4.5l2.7.5c1.2.2 1.8.6 1.8 1.3 0 .8-.8 1.3-2.1 1.3-1.4 0-2.3-.6-2.5-1.7h-4.9c.4 3.1 3 5 7.4 5 4.1 0 7.1-2 7.1-5.1 0-2.3-1.5-3.6-4.5-4.2l-3-.6c-1.3-.2-1.7-.7-1.7-1.3 0-.8.9-1.2 2-1.2 1.3 0 2.2.6 2.3 1.6l4.5-.1Z" fill="#312E81"></path>
  <defs>
      <linearGradient id="a" x1="0" y1="26.6" x2="21.4" y2="26.6" gradientUnits="userSpaceOnUse">
          <stop stop-color="#2D208C"></stop>
          <stop offset="1" stop-color="#361CB8"></stop>
      </linearGradient>
      <linearGradient id="b" x1=".1" y1="24.8" x2="17.8" y2="24.8" gradientUnits="userSpaceOnUse">
          <stop></stop>
          <stop offset="1" stop-opacity="0"></stop>
      </linearGradient>
      <linearGradient id="c" x1=".1" y1="22.6" x2="32.5" y2="22.6" gradientUnits="userSpaceOnUse">
          <stop stop-color="#2940E0"></stop>
          <stop offset="1" stop-color="#708AFF"></stop>
      </linearGradient>
      <linearGradient id="d" x1="4197" y1="1765" x2="11482.1" y2="1765" gradientUnits="userSpaceOnUse">
          <stop></stop>
          <stop offset="1" stop-opacity="0"></stop>
      </linearGradient>
      <linearGradient id="e" x1="4.7" y1="9.6" x2="46.7" y2="9.6" gradientUnits="userSpaceOnUse">
          <stop stop-color="#5E7EFF"></stop>
          <stop offset="1" stop-color="#ABBBFF"></stop>
      </linearGradient>
      <linearGradient id="f" x1="5.3" y1="9.3" x2="43" y2="9.3" gradientUnits="userSpaceOnUse">
          <stop stop-color="#5470FF"></stop>
          <stop offset="1" stop-color="#B3C4FF"></stop>
      </linearGradient>
      <linearGradient id="g" x1="5.2" y1="9.4" x2="35.5" y2="9.4" gradientUnits="userSpaceOnUse">
          <stop stop-color="#5476FF"></stop>
          <stop offset="1" stop-color="#ABBBFF"></stop>
      </linearGradient>
  </defs>
</svg>